<?xml version="1.0" encoding="utf-8"?>
<!-- Generator: Adobe Illustrator 18.0.0, SVG Export Plug-In . SVG Version: 6.00 Build 0)  -->
<!DOCTYPE svg PUBLIC "-//W3C//DTD SVG 1.1//EN" "http://www.w3.org/Graphics/SVG/1.1/DTD/svg11.dtd">
<svg version="1.1" xmlns="http://www.w3.org/2000/svg" xmlns:xlink="http://www.w3.org/1999/xlink" x="0px" y="0px"
	 viewBox="0 0 685.2 449.2" enable-background="new 0 0 685.2 449.2" xml:space="preserve">
<g id="Background" display="none">
	<rect x="-386.9" y="-251" display="inline" fill="#F9A818" width="1366" height="768"/>
</g>
<g id="Objects">
	<path opacity="0.2" fill-rule="evenodd" clip-rule="evenodd" d="M467.4,386.2c0.2-0.4,0.5-0.8,0.7-1.2l0,0c0.7-0.8,1-1.4,1-1.9
		c15.9-30.1,12.2-82.1-7.8-137.6c-16.3-45.1-43.3-92.5-79.2-132.3c-22.1-24.5-42.2-54.4,0.6-31.2c60.4,32.8,120.5,80.4,144.7,135.1
		c2.6,5.9,4.4,10.5,5.3,14.4c1.3,5.5-10,49.7,10.1,33.9c9.1-7.1,16.5,9.9,17.8,20.2c1.4,11.3,17.2,22.4,14,8.8
		c-4-16.8,0.6-16.7,10.8-1c5.8,9,21.8,14.1,12.5,0.5c-12-17.5-13.4-24.5,1-11.2c8.9,8.2,19.7,7.7,5.8-6
		c-19.8-19.5-36.6-63.7-76.1-105.3C443.7,82,276.4,17.6,186.6,17.6c-86.4,0-247.3,8.5-162.8,134.1c14.2,21.1,35.8,46.3,47.6,67.4
		c8.4,15,16.6,11.1,11.9,1.9c-7.6-14.9,0.6-9.6,15.4,7.3c11.5,13.1,15.9,3.3,8-5.2c-13.7-14.9-10.7-16.8,8.7-3.6
		c15.6,10.6,12-3.2-2-11.6c-12.8-7.7-30.1-22.4-14.4-21.1c29.1,2.5-16.6-17.8-24.8-24.9c-0.3-0.3-0.6-0.5-0.9-0.8
		C4.5,100.3,28.6,63.8,68,49.9C86,43.5,93.8,64.1,94.5,79c1.8,34.8,22.9,78.7,57.2,122.5c41.6,53.1,100.1,105.3,154.7,137l0,0
		l0.1,0.1c1.1,0.6,2.1,1.2,3.2,1.8c4.8,3.4,9.6,9.6,6.5,12.8c-3.3,3.4-7.7,7.4-7.9,12.9c-40.1-13.1-17.2,31.1-2.3,36.5
		c41.6,15,28.5-13.7,48.1-12.5c4.5,0.3,12.5-10.5,9.1-16c-3.7-6-5.9-9.6-9.6-13.2c-2.3-2.2-4.8-4.3-7.3-6.1l0,0l0,0
		c-1-0.8-2.1-1.5-3.2-2.2c-7.7-5.6-19.8-15.6-28-22.9c-35.5-33-45.6-60.9,23.4-60.9c84.2,0,117.5,82.6,115.9,129.1
		c-4.7,9-2.2,14.7-1.6,18.4c0.6,3.6,1.7-6.3,5.2-0.3c3.2,5.5,24.3,16.3,28.5,16c18.2-1.2,19.4,21.9,42.8,6.9
		c8.4-5.3-7.2-24.1-26.4-26C488.8,401.7,466,391.7,467.4,386.2z"/>
	<g>
		<path fill-rule="evenodd" clip-rule="evenodd" fill="#1E4D44" d="M454.3,404.9c47.2-20.5,87.5-83.1,104.7-151.2
			c11-43.4,12.6-89,0.7-127.3c-7.3-23.6-9.3-52.4,19.5-30c40.6,31.5,71.9,77.3,63.1,130c-1,5.7-1.9,10.1-3.3,13.8
			c-2,5.3-40.1,47.9-10.4,32.6c13.4-6.9,10.5,9.5,5.6,19.5c-5.4,10.9,3.6,21.5,8.6,8.5c6.2-16.2,10.7-16.1,11.4-1
			c0.4,8.7,13.3,13.6,12.2,0.4c-1.4-16.9,1.4-23.6,7.7-10.7c3.9,7.9,15.1,7.4,9.4-5.8c-8.1-18.8,1.9-61.3-12.5-101.4
			c-30.9-86.1-159.3-148.1-249-148.1c-86.4,0-252.5,8.2-243.8,129.1c1.5,20.3,7.8,44.5,6.9,64.8c-0.7,14.4,9.9,10.7,10.8,1.8
			c1.4-14.4,6.4-9.2,11,7.1c3.6,12.6,13.9,3.2,11.2-5c-4.7-14.3-0.6-16.2,10.9-3.4c9.2,10.2,13.9-3.1,5.1-11.2
			c-8.1-7.4-16.5-21.6-1.6-20.3c27.6,2.4-5.9-17.2-9.7-24c-0.1-0.2-0.3-0.5-0.4-0.8C190,113.9,236.2,78.7,284,65.3
			c21.9-6.1,17.1,13.7,8.9,28.1c-19.2,33.5-24.6,75.7-16.8,117.8c12.3,66.3,54,131.1,105.4,153.3C348,321.9,331.8,276,422.1,276
			C512.3,276,487.8,362.2,454.3,404.9z"/>
		<path fill-rule="evenodd" clip-rule="evenodd" fill="#11362F" d="M381.5,364.6c1.6,3.5,1.5,7,1.7,12.7
			c0.1,5.3-14.4,15.7-18.8,15.4c-18.9-1.2-23.2,26.4-55.7,12c-11.6-5.1-7.8-47.7,24.4-35.1c7.7-11.4,30.3-16.3,21.1-22
			C343.7,341.1,373,345.7,381.5,364.6z"/>
		<path fill-rule="evenodd" clip-rule="evenodd" fill="#11362F" d="M454.3,404.9c-1.6,3.5-1.5,7-1.7,12.7
			c-0.1,5.3,14.4,15.7,18.8,15.4c18.9-1.2,23.2,26.4,55.7,12c11.6-5.1,10.4-46-24.4-35.1c-7.7-11.4-30.3-16.3-21.1-22
			C492.2,381.3,462.8,386,454.3,404.9z"/>
		<g>
			<path fill="#2A5E55" d="M277.1,216.5c25.1,17.5,74.8,33.6,135.8,37.8c45.8,3.2,97.6-0.6,149.6-16c-1,5.1-2.2,10.3-3.5,15.4
				c-1,4.1-2.1,8.1-3.3,12.2c-35.6,9.3-70.8,13.6-104.1,14.2c-8.1-2.6-17.8-4.1-29.5-4.1c-10.1,0-18.9,0.6-26.5,1.7
				C352,273,314,262.3,286.4,249.2C282.6,238.5,279.4,227.5,277.1,216.5z"/>
			<path fill="#2A5E55" d="M273.6,155.4c22.6,16.4,72,28.9,132.8,30.2c49.2,1,105.3-5.8,160.4-24.3c0.9,8.4,1.3,16.9,1.2,25.6
				c-55.8,17.9-112.3,24.5-162.1,23.5c-55.5-1.1-103.2-12.1-133.1-27.4C272.4,173.6,272.7,164.4,273.6,155.4z"/>
			<path fill="#2A5E55" d="M292.5,94.1c22.9,14.4,62.3,26.2,110,28.6c46.1,2.4,99.5-4.1,152.8-25.5c-0.8,6.6,0.7,16,3.2,25.1
				c-55,21.1-109.7,27.5-157.2,25.1c-49.6-2.6-91.8-15.2-119-31.4C285.2,108.4,288.6,101,292.5,94.1z"/>
			<path fill="#2A5E55" d="M255,57c47.2-16.6,100.9-24.1,167.1-22.6c65.5,1.5,132.5,24.2,176.9,60.9c3.9,8.2-0.3,9.7-8.1,10.8
				c-25.1-17.3-33.3-21.7-35.5-8.7c-17.7-18-77.3-46.5-133.4-46.5c-26.8,0-61.5,6.8-81.4,13.6c-21.1,7.2-35.9,14.4-43.8,21.2
				c11-25.2-13-21.7-34.9-12.2C259.2,67.8,256.1,59.8,255,57z"/>
			<path fill="#2A5E55" d="M178.1,148.1c2.2-0.3,4.4-0.6,6.6-1c9.4-1.6,18.9-4.5,26.9-8.6c0.4,7.6,2.3,15.7,6,24.3
				c-9.2,4.2-19.2,7-29,8.7c-3.2,0.5-6.3,1-9.4,1.3c-0.4-3-0.7-6.1-0.9-9.5C177.9,158.1,177.9,153,178.1,148.1z"/>
			<path fill="#2A5E55" d="M204.2,88.4c0.9,0.5,1.8,0.9,2.8,1.3c6.6,3.1,13.6,5.6,20.5,7.1c-6,6.5-10.6,13.8-13.3,22
				c-5.8-1.8-11.5-4-16.9-6.5c-2.7-1.3-5.4-2.6-8-4.1C193.3,101,198.3,94.3,204.2,88.4z"/>
			<path fill="#2A5E55" d="M255,57c1.9,5.6,4.2,11.2,6.9,16.3c-7.5,3.3-14.5,7.3-20.9,11.8c-3-5.8-5.6-11.9-7.8-18.1
				C240,63.2,247.4,59.9,255,57z"/>
			<path fill="#2A5E55" d="M618,110.1c-0.7,1.1-1.4,2.1-2.2,3.1c-2.4,3.4-5,6.7-7.8,9.9c-5.3-6-11.1-11.8-17.2-17.2
				c2.1-2.4,4-5,5.9-7.6c0.8-1.1,1.5-2.1,2.2-3.2C605.6,99.9,612,104.9,618,110.1z"/>
			<path fill="#2A5E55" d="M659.4,157.9c-2.3,2.1-4.8,4.2-7.3,6.2c-4.4,3.5-9.1,6.7-14,9.6c-2.6-7.8-6-15.3-10-22.5
				c3.4-2.1,6.6-4.4,9.8-6.9c2.6-2.1,5.1-4.2,7.5-6.3C650.6,144.4,655.3,151.1,659.4,157.9z"/>
			<path fill="#2A5E55" d="M678.6,215.8c-5.4,2.1-10.1,3.2-16,4.6c-6.4,1.6-13.1,2.7-19.8,3.3c1.2-8.5,1.4-16.8,0.6-25
				c4.6-0.5,9.2-1.4,13.6-2.5c6.1-1.5,11.8-3.4,16.9-5.5C676.8,199.8,677.5,208.5,678.6,215.8z"/>
		</g>
		<path fill-rule="evenodd" clip-rule="evenodd" fill="#112B26" d="M322.8,151.9l177.9-12.4l-15.5,57.8
			c-10.8,40.1-123.8,47.8-139.6,9.7L322.8,151.9z"/>
		<g>
			<path fill-rule="evenodd" clip-rule="evenodd" fill="#FCE6C0" d="M352.4,163.6c7-0.5,13.1,5,13.6,12.4
				c0.5,7.3-4.8,13.6-11.9,14.1c-7,0.5-13.1-5-13.6-12.4C340,170.4,345.4,164.1,352.4,163.6z"/>
			<path fill-rule="evenodd" clip-rule="evenodd" fill="#FCE6C0" d="M389.2,154c7-0.5,13.1,5,13.6,12.4c0.5,7.3-4.8,13.6-11.9,14.1
				c-7,0.5-13.1-5-13.6-12.4C376.8,160.8,382.1,154.5,389.2,154z"/>
			<path fill-rule="evenodd" clip-rule="evenodd" fill="#FCE6C0" d="M434.7,150.8c7-0.5,13.1,5,13.6,12.4
				c0.5,7.3-4.8,13.6-11.9,14.1c-7,0.5-13.1-5-13.6-12.4C422.4,157.6,427.7,151.3,434.7,150.8z"/>
			<path fill-rule="evenodd" clip-rule="evenodd" fill="#FCE6C0" d="M474.9,154.8c7-0.5,13.1,5,13.6,12.4
				c0.5,7.3-4.8,13.6-11.9,14.1c-7,0.5-13.1-5-13.6-12.4C462.6,161.6,467.9,155.3,474.9,154.8z"/>
			<path fill-rule="evenodd" clip-rule="evenodd" fill="#FCE6C0" d="M394.3,199.5c7-0.5,13.1,5,13.6,12.4
				c0.5,7.3-4.8,13.6-11.9,14.1c-7,0.5-13.1-5-13.6-12.4C382,206.3,387.3,200,394.3,199.5z"/>
			<path fill-rule="evenodd" clip-rule="evenodd" fill="#FCE6C0" d="M438,196.1c7-0.5,13.1,5,13.6,12.4c0.5,7.3-4.8,13.6-11.9,14.1
				c-7,0.5-13.1-5-13.6-12.4C425.7,202.9,431,196.6,438,196.1z"/>
		</g>
		<path fill-rule="evenodd" clip-rule="evenodd" fill="#00BAAE" d="M406.6,65.5c58.2-4.1,107.4,24.3,109.9,63.4
			c0.8,13.2-3.3,26.2-12.4,37c-6.7,8.1-70.1-4.3-91.3-2.8c-29.3,2-80.6,26.5-93.5,11.9c-8-9.1-12.9-19.8-13.6-31.4
			C303.3,104.5,348.4,69.5,406.6,65.5z"/>
		<path fill-rule="evenodd" clip-rule="evenodd" fill="#00BAAE" d="M297,114.8c7.6-0.5,14.5,9.6,15.3,22.7
			c0.8,13.1-4.6,24.1-12.3,24.6c-7.6,0.5-14.5-9.6-15.3-22.7C283.9,126.4,289.4,115.3,297,114.8z"/>
		<path fill-rule="evenodd" clip-rule="evenodd" fill="#00C0B3" d="M520.8,99.2c7.6-0.5,14.5,9.6,15.3,22.7
			c0.8,13.1-4.6,24.1-12.3,24.6c-7.6,0.5-14.5-9.6-15.3-22.7C507.7,110.8,513.2,99.7,520.8,99.2z"/>
		<path fill-rule="evenodd" clip-rule="evenodd" fill="#029E94" d="M479,91.4c18.5,1.4,32.5,18.2,31.2,37.5
			c-1.3,19.3-17.4,33.8-36,32.5c-18.5-1.4-32.5-18.2-31.2-37.5C444.4,104.5,460.5,90,479,91.4z"/>
		<path fill-rule="evenodd" clip-rule="evenodd" fill="#FCE6C0" d="M478.4,93.8c15.3,1.1,26.8,15,25.7,30.9
			c-1.1,15.9-14.4,27.9-29.7,26.8c-15.3-1.1-26.8-15-25.7-30.9C449.8,104.7,463.1,92.7,478.4,93.8z"/>
		<g>
			<path fill-rule="evenodd" clip-rule="evenodd" d="M489.9,110.1c5.6,0.4,9.8,5.5,9.4,11.3c-0.4,5.8-5.3,10.2-10.9,9.8
				c-5.6-0.4-9.8-5.5-9.4-11.3C479.5,114.1,484.3,109.7,489.9,110.1z"/>
			<path fill-rule="evenodd" clip-rule="evenodd" fill="#FCE6C0" d="M495.7,122.5c1.8,0.1,3.2,1.8,3,3.7c-0.1,1.9-1.7,3.3-3.5,3.2
				c-1.8-0.1-3.2-1.8-3-3.7C492.3,123.8,493.9,122.4,495.7,122.5z"/>
		</g>
		<path fill-rule="evenodd" clip-rule="evenodd" fill="#029E94" d="M347.5,100.6c18.5,1.4,32.5,18.2,31.2,37.5
			c-1.3,19.3-17.4,33.8-36,32.5c-18.5-1.4-32.5-18.2-31.2-37.5C312.9,113.7,329,99.2,347.5,100.6z"/>
		<path fill-rule="evenodd" clip-rule="evenodd" fill="#FCE6C0" d="M346.9,103c15.3,1.1,26.8,15,25.7,30.9
			c-1.1,15.9-14.4,27.9-29.7,26.8c-15.3-1.1-26.8-15-25.7-30.9C318.3,113.8,331.6,101.9,346.9,103z"/>
		<g>
			<path fill-rule="evenodd" clip-rule="evenodd" d="M358.4,119.3c5.6,0.4,9.8,5.5,9.4,11.3c-0.4,5.8-5.3,10.2-10.9,9.8
				c-5.6-0.4-9.8-5.5-9.4-11.3C348,123.2,352.8,118.8,358.4,119.3z"/>
			<path fill-rule="evenodd" clip-rule="evenodd" fill="#FCE6C0" d="M364.2,131.7c1.8,0.1,3.2,1.8,3,3.7c-0.1,1.9-1.7,3.3-3.5,3.2
				c-1.8-0.1-3.2-1.8-3-3.7C360.9,133,362.4,131.5,364.2,131.7z"/>
		</g>
		<path fill-rule="evenodd" clip-rule="evenodd" fill="#00BAAE" d="M481.9,209.9c-10.2,13.6-42.2,22.4-65.8,24
			c-23.5,1.6-54.4-6.8-63.2-14.1c-9.1-7.5-14-21.2-6.2-18.3c8,2.9,37.5,13.6,68.1,11.5c29-2,59.2-14.1,70.9-18.9
			C487.8,193.2,491.7,196.9,481.9,209.9z"/>
		<path fill-rule="evenodd" clip-rule="evenodd" fill="#39E3D8" d="M394.7,84.5c8-0.6,14.8,3.9,15.2,9.9c0.4,6-5.8,11.4-13.8,12
			c-8,0.6-14.8-3.9-15.2-9.9C380.5,90.4,386.7,85.1,394.7,84.5z"/>
		<path fill-rule="evenodd" clip-rule="evenodd" fill="#39E3D8" d="M405.4,69.9c4-0.3,7.4,1.9,7.6,5c0.2,3-2.9,5.7-6.9,6
			c-4,0.3-7.4-1.9-7.6-5C398.3,72.8,401.4,70.1,405.4,69.9z"/>
		<path fill-rule="evenodd" clip-rule="evenodd" fill="#39E3D8" d="M373.4,76.1c4-0.3,7.4,1.9,7.6,5c0.2,3-2.9,5.7-6.9,6
			c-4,0.3-7.4-1.9-7.6-5C366.3,79.1,369.4,76.4,373.4,76.1z"/>
		<path fill-rule="evenodd" clip-rule="evenodd" fill="#00BAAE" d="M471.6,377c-2.5,4.6-10.7,18.7-12.7,20.9
			c-1.3,22.1,40.3,9.1,32.9,2.5c-5.5-3.5-7.5-14.4-2.6-19.1C480.4,383.2,476.1,381.6,471.6,377z"/>
		<path fill-rule="evenodd" clip-rule="evenodd" fill="#00BAAE" d="M347.9,343.1c4.1,2.2,7.2,10.3,0.9,14.2
			c-6.2,3.9-6.8,11.5-0.3,14.9c6.6,3.4,30.3,0.5,29.3-13.4c-4.3-4.5-11.7-16.2-16-24.2C364.1,339,352.2,346.5,347.9,343.1z"/>
		<path fill-rule="evenodd" clip-rule="evenodd" fill="#00BAAE" d="M635,246.2c-3.5,5.3-34.2,40.9-6.3,26.6
			c13.4-6.9,10.5,9.5,5.6,19.5c-5.4,10.9,3.6,21.5,8.6,8.5c6.2-16.2,10.7-16.1,11.4-1c0.4,8.7,13.3,13.6,12.2,0.4
			c-1.4-16.9,1.4-23.6,7.7-10.7c3.9,7.9,15.1,7.4,9.4-5.8c-3.2-7.4-3.6-18.8-3.7-27.6C663,256.8,647.1,251.7,635,246.2z"/>
		<path fill-rule="evenodd" clip-rule="evenodd" fill="#00BAAE" d="M183.3,200.4c0.8,7.3,2.2,20.7,1.9,27.9
			c-0.7,14.4,9.9,10.7,10.8,1.8c1.4-14.4,6.4-9.2,11,7.1c3.6,12.6,13.9,3.2,11.2-5c-4.7-14.3-0.6-16.2,10.9-3.4
			c9.2,10.2,13.9-3.1,5.1-11.2c-8.1-7.4-16.5-21.6-1.6-20.3c27.9,2.4-5.4-17.1-8.8-22.8C212.4,187.1,197.2,195.6,183.3,200.4z"/>
		<path fill-rule="evenodd" clip-rule="evenodd" fill="#39E3D8" d="M198.2,204.4c3.9-0.9,7.6,0.8,8.2,3.8c0.6,3-2.1,6.1-6,6.9
			c-3.9,0.9-7.6-0.8-8.2-3.8C191.6,208.3,194.3,205.2,198.2,204.4z"/>
		<path fill-rule="evenodd" clip-rule="evenodd" fill="#39E3D8" d="M208.6,193.2c2.5-0.6,4.8,0.5,5.2,2.4c0.4,1.9-1.3,3.9-3.8,4.4
			c-2.5,0.6-4.8-0.5-5.2-2.4C204.4,195.7,206.1,193.7,208.6,193.2z"/>
		<path fill-rule="evenodd" clip-rule="evenodd" fill="#39E3D8" d="M665.3,263.5c3.9-0.9,7.6,0.8,8.2,3.8c0.6,3-2.1,6.1-6,6.9
			c-3.9,0.9-7.6-0.8-8.2-3.8C658.6,267.5,661.3,264.4,665.3,263.5z"/>
		<path fill-rule="evenodd" clip-rule="evenodd" fill="#39E3D8" d="M653.1,259.6c2.5-0.6,4.8,0.5,5.2,2.4c0.4,1.9-1.3,3.9-3.8,4.4
			c-2.5,0.6-4.8-0.5-5.2-2.4C648.9,262.2,650.6,260.2,653.1,259.6z"/>
		<path fill-rule="evenodd" clip-rule="evenodd" fill="#39E3D8" d="M645.3,271.8c2.5-0.6,4.8,0.5,5.2,2.4c0.4,1.9-1.3,3.9-3.8,4.4
			c-2.5,0.6-4.8-0.5-5.2-2.4C641.1,274.3,642.8,272.4,645.3,271.8z"/>
		<path fill-rule="evenodd" clip-rule="evenodd" fill="#39E3D8" d="M480.1,395.8c3.9-0.9,7.6,0.8,8.2,3.8c0.6,3-2.1,6.1-6,6.9
			c-3.9,0.9-7.6-0.8-8.2-3.8C473.5,399.8,476.2,396.7,480.1,395.8z"/>
		<path fill-rule="evenodd" clip-rule="evenodd" fill="#39E3D8" d="M468.2,396.4c2.5-0.6,4.8,0.5,5.2,2.4c0.4,1.9-1.3,3.9-3.8,4.4
			c-2.5,0.6-4.8-0.5-5.2-2.4C463.9,398.9,465.7,396.9,468.2,396.4z"/>
		<path fill-rule="evenodd" clip-rule="evenodd" fill="#39E3D8" d="M350.1,358.9c2.5-0.6,4.8,0.5,5.2,2.4c0.4,1.9-1.3,3.9-3.8,4.4
			c-2.5,0.6-4.8-0.5-5.2-2.4C345.9,361.4,347.6,359.4,350.1,358.9z"/>
		<path fill-rule="evenodd" clip-rule="evenodd" fill="#39E3D8" d="M356,353.5c1.8-0.4,3.5,0.4,3.8,1.8c0.3,1.4-1,2.8-2.8,3.2
			c-1.8,0.4-3.5-0.4-3.8-1.8C352.9,355.4,354.2,353.9,356,353.5z"/>
		<path fill-rule="evenodd" clip-rule="evenodd" fill="#029E94" d="M520,105.5c4.5-0.3,8.6,5.7,9.1,13.4c0.5,7.7-2.8,14.3-7.3,14.6
			c-4.5,0.3-8.6-5.7-9.1-13.4C512.3,112.4,515.5,105.8,520,105.5z"/>
		<path fill-rule="evenodd" clip-rule="evenodd" fill="#029E94" d="M300.9,122.6c-4.5,0-8.2,6.2-8.3,14c0,7.8,3.6,14.1,8.1,14.1
			c4.5,0,8.2-6.2,8.3-14C309,128.9,305.4,122.6,300.9,122.6z"/>
		<g>
			
				<ellipse transform="matrix(0.1957 -0.9807 0.9807 0.1957 295.2983 492.9819)" fill-rule="evenodd" clip-rule="evenodd" fill="#11362F" cx="448.2" cy="66.5" rx="16" ry="58"/>
			<path fill-rule="evenodd" clip-rule="evenodd" fill="#D43D17" d="M422.1,3.4l74.5,14.9l-11.1,55.7c-0.9,4.3-18.2,4.5-38.8,0.4
				C426.1,70.2,410.1,63.4,411,59L422.1,3.4z"/>
			<path fill-rule="evenodd" clip-rule="evenodd" fill="#11362F" d="M422.1,3.4l74.5,14.9L488.4,59c-0.9,4.3-18.2,4.5-38.8,0.4
				c-20.6-4.1-36.5-10.9-35.7-15.3L422.1,3.4z"/>
			
				<ellipse transform="matrix(0.1957 -0.9807 0.9807 0.1957 358.8436 459.1141)" fill-rule="evenodd" clip-rule="evenodd" fill="#D43D17" cx="459.3" cy="10.8" rx="8" ry="38"/>
		</g>
	</g>
</g>
</svg>
