<?xml version="1.0" encoding="utf-8"?>
<!-- Generator: Adobe Illustrator 18.0.0, SVG Export Plug-In . SVG Version: 6.00 Build 0)  -->
<!DOCTYPE svg PUBLIC "-//W3C//DTD SVG 1.1//EN" "http://www.w3.org/Graphics/SVG/1.1/DTD/svg11.dtd">
<svg version="1.1" id="Layer_1" xmlns="http://www.w3.org/2000/svg" xmlns:xlink="http://www.w3.org/1999/xlink" x="0px" y="0px"
	 viewBox="0 0 612 792" enable-background="new 0 0 612 792" xml:space="preserve">
<g opacity="0.5">
	<rect x="78.9" y="208.6" fill="#FD8A06" width="454.2" height="84.7"/>
	<polygon fill="#FD8A06" points="495,208.6 117,208.6 172.2,108.4 439.8,108.4 	"/>
</g>
<path fill="#FD8A06" d="M533.1,311.7c10.2,0,18.4-8.2,18.4-18.4v-84.7c0-10.2-8.2-18.4-18.4-18.4h-27.3l-50-90.7
	c-3.2-5.9-9.4-9.5-16.1-9.5H172.2c-6.7,0-12.9,3.6-16.1,9.5l-50,90.7H78.9c-10.2,0-18.4,8.2-18.4,18.4v84.7
	c0,10.2,8.2,18.4,18.4,18.4h13.7l4.8,55.1H80.6c-5.2,0-10.1,2.2-13.6,6c-3.5,3.8-5.2,8.9-4.8,14l18.4,209.6
	c0.8,9.5,8.8,16.8,18.3,16.8H119l6.3,72.1c0.8,9.5,8.8,16.8,18.3,16.8h324.6c9.5,0,17.5-7.3,18.3-16.8l6.3-72.1H513
	c9.5,0,17.5-7.3,18.3-16.8l18.4-209.6c0.4-5.1-1.3-10.2-4.8-14c-3.5-3.8-8.4-6-13.6-6h-98.5c-10.2,0-18.4,8.2-18.4,18.4
	s8.2,18.4,18.4,18.4h78.4l-15.1,172.9h-20.3c0,0,0,0,0,0h-360l-15.1-172.9h16.8c0,0,0,0,0,0c0,0,0,0,0,0h200.1
	c10.2,0,18.4-8.2,18.4-18.4c0-10.2-8.2-18.4-18.4-18.4H134.4l-4.8-55.1L533.1,311.7L533.1,311.7z M451.5,665.2H160.5l-4.6-52.1H456
	L451.5,665.2z M183.1,126.8h245.8l34.9,63.4H148.2L183.1,126.8z M97.3,227H117H495h0h19.7v47.9H109.8c0,0-0.1,0-0.1,0H97.3L97.3,227
	L97.3,227z"/>
</svg>
