<?xml version="1.0" encoding="utf-8"?>
<!-- Generator: Adobe Illustrator 18.0.0, SVG Export Plug-In . SVG Version: 6.00 Build 0)  -->
<!DOCTYPE svg PUBLIC "-//W3C//DTD SVG 1.1//EN" "http://www.w3.org/Graphics/SVG/1.1/DTD/svg11.dtd">
<svg version="1.1" id="Layer_1" xmlns="http://www.w3.org/2000/svg" xmlns:xlink="http://www.w3.org/1999/xlink" x="0px" y="0px"
	 viewBox="0 0 612 792" enable-background="new 0 0 612 792" xml:space="preserve">
<g>
	<path fill="#FD8A06" d="M425.3,322.3c-4,0-8-1.5-11.1-4.6c-6.1-6.1-6.1-16,0-22.1l103.3-103.3c6.1-6.1,16-6.1,22.1,0
		c6.1,6.1,6.1,16,0,22.1L436.4,317.8C433.3,320.8,429.3,322.3,425.3,322.3z"/>
	<path fill="#FD8A06" d="M328.9,372.7c-4.3,0-8.6-1.8-11.7-5.3c-5.7-6.5-5.1-16.3,1.3-22.1l16-14.2c-14.7-40.4-5-86.2,25.8-117
		l89.5-89.5c6.1-6.1,16-6.1,22.1,0c6.1,6.1,6.1,16,0,22.1l-89.5,89.5c-24.2,24.2-30.3,61.3-15.1,92.2c3.1,6.3,1.6,13.9-3.7,18.6
		l-24.4,21.7C336.3,371.4,332.5,372.7,328.9,372.7z"/>
	<path fill="#FD8A06" d="M377.6,415.9c-3.7,0-7.4-1.3-10.4-3.9c-6.5-5.7-7-15.6-1.3-22.1l19.1-21.5c4.7-5.3,12.3-6.8,18.6-3.7
		c30.9,15.2,68,9.1,92.2-15.1l89.5-89.5c6.1-6.1,16-6.1,22.1,0c6.1,6.1,6.1,16,0,22.1l-89.5,89.5c-30.8,30.8-76.6,40.6-117,25.8
		l-11.6,13.1C386.2,414.2,381.9,415.9,377.6,415.9z"/>
	<path fill="#FD8A06" d="M127,671.9c-1.4,0-2.8,0-4.2-0.1c-19.2-1.2-37-10.6-48.8-25.9c-7.4-9.6-12.1-21-13.5-33
		c-2.4-20.7,4.7-40.9,19.3-55.5c1.3-1.3,2.5-2.4,3.9-3.6l91.5-81.3c6.5-5.7,16.3-5.1,22.1,1.3c5.7,6.5,5.1,16.3-1.3,22.1l-91.6,81.4
		c-0.1,0.1-0.2,0.2-0.3,0.2c-0.7,0.6-1.4,1.3-2.1,2c-7.9,7.9-11.6,18.5-10.3,29.8c0.7,6.3,3.2,12.3,7.1,17.4
		c6.4,8.3,15.7,13.2,26.1,13.9c10.3,0.7,20.5-3.2,27.8-10.5c0.7-0.7,1.3-1.4,2-2.2c0.1-0.1,0.1-0.2,0.2-0.2l77.9-87.7
		c5.7-6.5,15.6-7,22.1-1.3c6.5,5.7,7,15.6,1.3,22.1l-77.8,87.6c-1.2,1.4-2.4,2.7-3.6,3.9C162,664.9,144.8,671.9,127,671.9z"/>
</g>
<path opacity="0.5" fill="#FD8A06" d="M475.3,570.6L230.4,353.3c19.1-36.8,12.4-81.6-17.3-111.4c-39-39-85.9-62.3-125.4-62.3
	c-21.3,0-39.4,6.8-52.2,19.7C16.7,218,11,247,19.5,280.7c8.2,32.5,29,66.7,58.5,96.2c18,18,42,28,67.5,28c15.3,0,30.4-3.7,43.9-10.6
	l217.4,244.9c0.9,1,1.8,2,2.7,2.9c9.2,9.2,21.4,14.2,34.4,14.2s25.2-5.1,34.4-14.2c19-19,19-49.8,0-68.8
	C477.3,572.4,476.3,571.5,475.3,570.6L475.3,570.6z"/>
<path fill="#FD8A06" d="M443.8,671.9c-17.2,0-33.3-6.7-45.4-18.8c-1.2-1.2-2.3-2.4-3.4-3.7L185.3,413.2c-12.6,4.8-26.2,7.3-39.8,7.3
	c-29.7,0-57.6-11.6-78.5-32.5c-31.5-31.5-53.7-68.2-62.6-103.5c-9.9-39.3-2.8-73.5,20-96.3C40.2,172.4,62.1,164,87.6,164
	c43.6,0,94.6,25,136.5,66.9c31.5,31.5,40.9,77.7,25.2,118.3l236.2,209.6c1.4,1.2,2.6,2.3,3.7,3.4c12.1,12.1,18.8,28.2,18.8,45.4
	c0,17.2-6.7,33.3-18.8,45.4C477.1,665.3,460.9,671.9,443.8,671.9z M189.4,378.6c4.4,0,8.7,1.8,11.7,5.3l217.4,244.9
	c0.1,0.1,0.2,0.2,0.2,0.3c0.6,0.7,1.2,1.3,1.8,2c6.2,6.2,14.5,9.6,23.3,9.6c8.8,0,17.1-3.4,23.3-9.7c6.2-6.2,9.6-14.5,9.6-23.3
	c0-8.8-3.4-17.1-9.6-23.3c-0.6-0.6-1.2-1.2-2-1.8c-0.1-0.1-0.2-0.1-0.2-0.2L220,365c-5.4-4.8-6.8-12.5-3.5-18.9
	c16.1-30.9,10.2-68.4-14.5-93.1c-36.2-36.2-78.9-57.7-114.4-57.7c-17,0-31.3,5.2-41.2,15.1c-14.7,14.7-18.9,38.3-11.8,66.6
	c7.5,29.8,26.8,61.4,54.4,89c15.1,15.1,35.1,23.4,56.4,23.4c12.7,0,25.4-3.1,36.7-8.9C184.5,379.2,186.9,378.6,189.4,378.6z"/>
</svg>
