<?xml version="1.0" encoding="utf-8"?>
<!-- Generator: Adobe Illustrator 18.0.0, SVG Export Plug-In . SVG Version: 6.00 Build 0)  -->
<!DOCTYPE svg PUBLIC "-//W3C//DTD SVG 1.1//EN" "http://www.w3.org/Graphics/SVG/1.1/DTD/svg11.dtd">
<svg version="1.1" id="Layer_1" xmlns="http://www.w3.org/2000/svg" xmlns:xlink="http://www.w3.org/1999/xlink" x="0px" y="0px"
	 viewBox="0 0 612 792" enable-background="new 0 0 612 792" xml:space="preserve">
<path opacity="0.5" fill="#FD8A06" d="M129.4,249.6L129.4,249.6c0,46.9,38,84.9,84.9,84.9h11.1c46.9,0,84.9-38,84.9-84.9l0,0H129.4z
	"/>
<path fill="#FD8A06" d="M310.4,99.3c-9.3,0-16.9,7.5-16.9,16.9v116.6h-56.8V106.9c0-9.3-7.5-16.9-16.9-16.9
	c-9.3,0-16.9,7.5-16.9,16.9v125.9h-56.8V116.2c0-9.3-7.5-16.9-16.9-16.9s-16.9,7.5-16.9,16.9v133.4c0,52.3,39.7,95.5,90.5,101.1
	v76.9h-30.6c-9.3,0-16.9,7.5-16.9,16.9v193.1c0,35.5,28.9,64.3,64.3,64.3s64.3-28.9,64.3-64.3v-72.8c0-9.3-7.5-16.9-16.9-16.9
	c-9.3,0-16.9,7.5-16.9,16.9v72.8c0,16.9-13.7,30.6-30.6,30.6s-30.6-13.7-30.6-30.6V461.4h61.3v46.7c0,9.3,7.5,16.9,16.9,16.9
	s16.9-7.5,16.9-16.9v-63.6c0-9.3-7.5-16.9-16.9-16.9h-30.6v-76.9c50.8-5.6,90.5-48.8,90.5-101.1V116.2
	C327.2,106.9,319.7,99.3,310.4,99.3z M291.2,267.1c-0.2,0.8-0.5,1.7-0.7,2.5c-0.1,0.4-0.2,0.7-0.3,1c-0.2,0.6-0.4,1.3-0.6,1.9
	c-0.1,0.4-0.3,0.8-0.4,1.1c-0.2,0.6-0.5,1.2-0.7,1.8c-0.2,0.4-0.3,0.8-0.5,1.1c-0.3,0.6-0.5,1.2-0.8,1.8c-0.2,0.3-0.3,0.7-0.5,1
	c-0.4,0.7-0.7,1.5-1.1,2.2c-0.1,0.2-0.2,0.4-0.3,0.5c-0.5,0.9-1,1.8-1.5,2.6c-0.2,0.3-0.4,0.6-0.6,0.9c-0.4,0.6-0.7,1.1-1.1,1.7
	c-0.2,0.3-0.5,0.7-0.7,1c-0.3,0.5-0.7,1-1.1,1.5c-0.2,0.3-0.5,0.7-0.8,1c-0.4,0.5-0.8,1-1.1,1.4c-0.3,0.3-0.5,0.6-0.8,0.9
	c-0.4,0.5-0.9,1-1.3,1.5c-0.2,0.3-0.4,0.5-0.7,0.8c-0.7,0.7-1.4,1.5-2.1,2.2c-0.2,0.2-0.4,0.4-0.6,0.6c-0.5,0.5-1.1,1-1.6,1.5
	c-0.3,0.3-0.6,0.5-0.9,0.8c-0.5,0.4-0.9,0.8-1.4,1.2c-0.3,0.3-0.6,0.5-1,0.8c-0.5,0.4-0.9,0.8-1.4,1.1c-0.3,0.3-0.7,0.5-1,0.8
	c-0.5,0.4-1,0.7-1.6,1.1c-0.3,0.2-0.6,0.4-0.9,0.6c-0.7,0.5-1.4,0.9-2.1,1.4c-0.1,0.1-0.3,0.2-0.4,0.3c-0.9,0.5-1.7,1-2.6,1.5
	c-0.3,0.2-0.6,0.3-0.9,0.5c-0.6,0.3-1.2,0.6-1.8,0.9c-0.4,0.2-0.7,0.3-1.1,0.5c-0.6,0.3-1.1,0.5-1.7,0.8c-0.4,0.2-0.8,0.3-1.1,0.5
	c-0.6,0.2-1.2,0.5-1.8,0.7c-0.4,0.1-0.7,0.3-1.1,0.4c-0.7,0.3-1.4,0.5-2.1,0.7c-0.3,0.1-0.5,0.2-0.8,0.3c-1,0.3-2,0.6-3,0.8
	c-0.2,0.1-0.5,0.1-0.7,0.2c-0.8,0.2-1.5,0.4-2.3,0.5c-0.4,0.1-0.7,0.1-1.1,0.2c-0.7,0.1-1.3,0.2-2,0.4c-0.4,0.1-0.8,0.1-1.2,0.2
	c-0.7,0.1-1.3,0.2-2,0.3c-0.4,0-0.8,0.1-1.2,0.1c-0.7,0.1-1.5,0.1-2.2,0.2c-0.3,0-0.7,0.1-1,0.1c-1.1,0.1-2.2,0.1-3.3,0.1h-11.1
	c-1.1,0-2.2,0-3.3-0.1c-0.4,0-0.7,0-1-0.1c-0.7,0-1.5-0.1-2.2-0.2c-0.4,0-0.8-0.1-1.2-0.1c-0.7-0.1-1.3-0.2-2-0.3
	c-0.4-0.1-0.8-0.1-1.2-0.2c-0.7-0.1-1.3-0.2-2-0.4c-0.4-0.1-0.7-0.1-1.1-0.2c-0.8-0.2-1.6-0.3-2.3-0.5c-0.2-0.1-0.5-0.1-0.7-0.2
	c-1-0.3-2-0.5-3-0.9c-0.3-0.1-0.5-0.2-0.8-0.3c-0.7-0.2-1.4-0.5-2.1-0.7c-0.4-0.1-0.7-0.3-1.1-0.4c-0.6-0.2-1.2-0.5-1.8-0.7
	c-0.4-0.2-0.8-0.3-1.1-0.5c-0.6-0.3-1.2-0.5-1.7-0.8c-0.4-0.2-0.7-0.3-1.1-0.5c-0.6-0.3-1.2-0.6-1.8-0.9c-0.3-0.2-0.6-0.3-0.9-0.5
	c-0.9-0.5-1.8-1-2.6-1.5c-0.1-0.1-0.2-0.2-0.4-0.2c-0.7-0.5-1.5-0.9-2.2-1.4c-0.3-0.2-0.6-0.4-0.9-0.6c-0.5-0.4-1.1-0.7-1.6-1.1
	c-0.3-0.2-0.7-0.5-1-0.7c-0.5-0.4-1-0.8-1.4-1.1c-0.3-0.3-0.6-0.5-1-0.8c-0.5-0.4-1-0.8-1.4-1.2c-0.3-0.3-0.6-0.5-0.9-0.8
	c-0.6-0.5-1.1-1-1.6-1.6c-0.2-0.2-0.4-0.4-0.6-0.5c-0.7-0.7-1.4-1.4-2.1-2.2c-0.2-0.2-0.4-0.5-0.6-0.7c-0.5-0.5-0.9-1-1.4-1.6
	c-0.3-0.3-0.5-0.6-0.7-0.9c-0.4-0.5-0.8-1-1.2-1.5c-0.3-0.3-0.5-0.7-0.7-1c-0.4-0.5-0.7-1-1.1-1.5c-0.2-0.3-0.5-0.7-0.7-1
	c-0.4-0.6-0.7-1.1-1.1-1.7c-0.2-0.3-0.4-0.6-0.5-0.9c-0.5-0.9-1-1.7-1.5-2.6c-0.1-0.2-0.2-0.3-0.3-0.5c-0.4-0.7-0.8-1.5-1.1-2.2
	c-0.2-0.3-0.3-0.7-0.5-1c-0.3-0.6-0.6-1.2-0.8-1.8c-0.2-0.4-0.3-0.7-0.5-1.1c-0.2-0.6-0.5-1.2-0.7-1.8c-0.1-0.4-0.3-0.8-0.4-1.1
	c-0.2-0.6-0.4-1.3-0.7-1.9c-0.1-0.3-0.2-0.7-0.3-1c-0.3-0.8-0.5-1.6-0.7-2.5c0-0.2-0.1-0.3-0.1-0.5c0,0,0,0,0-0.1h143c0,0,0,0,0,0.1
	C291.3,266.8,291.3,266.9,291.2,267.1z"/>
<path opacity="0.5" fill="#FD8A06" d="M389.6,382.9h91V274.1c0-62.8-29.7-121.8-80.2-159.2l-10.9-8.1L389.6,382.9L389.6,382.9z"/>
<path fill="#FD8A06" d="M482.6,525c9.3,0,16.9-7.5,16.9-16.9v-63.6c0-9.3-7.5-16.9-16.9-16.9H452v-27.9h28.7
	c9.3,0,16.9-7.5,16.9-16.9V274.1c0-67.8-32.5-132.4-87-172.8l-10.9-8.1c-5.1-3.8-11.9-4.4-17.6-1.5c-5.7,2.9-9.3,8.7-9.3,15.1v276
	c0,9.3,7.5,16.9,16.9,16.9h28.7v27.9h-30.6c-9.3,0-16.9,7.5-16.9,16.9v193.1c0,35.5,28.9,64.3,64.3,64.3s64.3-28.9,64.3-64.3v-72.8
	c0-9.3-7.5-16.9-16.9-16.9c-9.3,0-16.9,7.5-16.9,16.9v72.8c0,16.9-13.7,30.6-30.6,30.6c-16.9,0-30.6-13.7-30.6-30.6V461.4h61.3v46.7
	C465.7,517.4,473.3,525,482.6,525z M406.4,141.9c36.2,34,57.3,82.1,57.3,132.3V366h-57.3V141.9z"/>
</svg>
