<?xml version="1.0" encoding="utf-8"?>
<!-- Generator: Adobe Illustrator 18.0.0, SVG Export Plug-In . SVG Version: 6.00 Build 0)  -->
<!DOCTYPE svg PUBLIC "-//W3C//DTD SVG 1.1//EN" "http://www.w3.org/Graphics/SVG/1.1/DTD/svg11.dtd">
<svg version="1.1" id="Layer_1" xmlns="http://www.w3.org/2000/svg" xmlns:xlink="http://www.w3.org/1999/xlink" x="0px" y="0px"
	 viewBox="0 0 612 792" enable-background="new 0 0 612 792" xml:space="preserve">
<g>
	<path opacity="0.5" fill="#FD8A06" d="M78.5,294.6c0,0,58.1-25.7,132.9-33.9c12-1.3,61.6-36.7,61.9-36.9
		c32.6-23.9,57.9,70.8,57.9,70.8c0.3-1.7,0.6-3.4,0.9-5.2c0.1-0.8,0.2-1.6,0.4-2.4c2.8-18.4,14.1-40.7,14-59.3
		c-0.1-12.2-1.1-22.8-3.4-29.7c-21.6-63.5-73.6-42.6-73.6-42.6s-36.3-48.7-63.8-47.2c-0.3,0-0.6,0-0.9,0v0.1c-2.7,0.3-5.2,1-7.7,2.3
		c-71.2,38.3-80.6,33.5-96.6,39c-38.7,13.5-39.7,9.9-34.9,39.7C73.6,239.2,77,275.6,78.5,294.6z"/>
	<path opacity="0.5" fill="#FD8A06" d="M355.3,363.2c0,0,47.9-21.2,109.5-27.9c9.9-1.1,50.7-30.2,51-30.4
		c26.8-19.7,47.7,58.3,47.7,58.3c0.2-1.4,0.5-2.8,0.7-4.2c0.1-0.6,0.2-1.3,0.3-2c2.3-15.1,11.6-33.5,11.5-48.8
		c0-10-0.9-18.7-2.8-24.5c-17.8-52.3-60.6-35.1-60.6-35.1s-29.9-40.1-52.6-38.9c-0.3,0-0.5,0-0.8,0v0.1c-2.2,0.2-4.3,0.8-6.3,1.9
		c-58.6,31.5-66.4,27.6-79.6,32.2c-31.9,11.1-32.7,8.1-28.7,32.7C351.3,317.6,354,347.5,355.3,363.2z"/>
</g>
<path fill="#FD8A06" d="M590.4,277.8c-15.4-45.3-48.4-50.2-61.9-50.2c-3.2,0-6.3,0.2-9,0.6c-12.5-14.6-35.3-36.8-58.6-36.8
	c-0.3,0-0.6,0-0.9,0c-0.3,0-0.6,0-1,0c-1.4,0-2.8,0.2-4.2,0.5c-3.8,0.6-7.3,1.9-10.7,3.6c-42.8,23-56.7,26-65.9,28
	c-3.4,0.7-7,1.5-11.1,2.9c-0.9,0.3-1.8,0.6-2.7,0.9c-0.1-15.3-1.5-26.9-4.4-35.3C342.9,141.5,308,134,288.8,134
	c-4.6,0-8.8,0.4-12.5,1c-13.8-16.4-41.9-45-69.5-45c-0.4,0-0.8,0-1.1,0c-0.4,0-0.8,0-1.2,0c-1.5,0-2.9,0.2-4.2,0.5
	c-4.2,0.7-8.2,2-11.9,4c-52.5,28.2-69.6,31.9-81,34.4c-4.1,0.9-8.3,1.8-13,3.4c-4.2,1.5-8,2.7-11.4,3.9c-16.6,5.5-26.5,8.9-33,18.6
	c-6.9,10.5-5.1,21.8-2.5,37.4c5.9,35.9,10.2,70.7,12.8,103.4v22.6c0,37.2,14.1,71.1,37.2,96.7C49.3,438.6,17.8,490,17.8,550v133.8
	c0,10.1,8.2,18.2,18.2,18.2h433c10.1,0,18.2-8.2,18.2-18.2c0-10.1-8.2-18.2-18.2-18.2H338.6v-92c0-41.6,23.1-75.2,58.3-85.7
	c18.3,11,39.7,17.3,62.6,17.3c67.5,0,122.3-54.9,122.3-122.3V364c0.1-0.7,0.2-1.4,0.4-2.1l0.3-2.1c0.8-4.9,2.7-10.9,4.7-17.3
	c3.3-10.6,7.1-22.5,7.1-34.4C594.1,295,592.9,285.1,590.4,277.8z M369.5,264.3c2.9-1,6.1-2,9.7-3.3c2-0.7,4.1-1.1,6.9-1.8
	c11.8-2.6,27.9-6.1,75-31.4c6.9,0.2,24.7,15.5,36.8,31.6c5,6.8,13.6,9.4,21.3,6.1c0.7-0.2,4.5-1.4,9.3-1.4c4.6,0,18.7,0,27.4,25.5
	c0.4,1.1,1.5,5.1,1.8,14.7c-7.5-10.6-18.4-20.8-33.2-20.8c-6.7,0-13.5,2.3-19.4,6.6c-13.8,9.9-36.5,24.7-43.3,27.1
	c-37.6,4.2-70,13.4-90.6,20.4c-2.2-20.7-5.1-42.2-8.7-64.1c-0.3-2-0.7-4.4-1-6.5C363.9,266.2,366.8,265.2,369.5,264.3z M94.2,266.5
	c-2.7-25.8-6.2-52.7-10.7-80.1c-0.6-3.5-1.3-8-1.6-11.1c3.1-1.3,8-2.9,12.7-4.5c3.5-1.2,7.4-2.5,11.8-4c2.7-0.9,5.2-1.5,8.8-2.3
	c14.1-3.1,33.5-7.3,90.5-37.9c0.1-0.1,0.3-0.2,0.8-0.2c0,0,0.1,0,0.1,0c0,0,0,0,0,0l0.3,0c10.7,0,33.8,21,47.9,39.9
	c5,6.7,13.6,9.3,21.3,6.1c0.7-0.3,6-2,12.7-2c17.2,0,29.2,11,36.9,33.5c0.7,2.1,2.4,8.6,2.5,23.9c0,2.4-0.3,5.1-0.8,7.9
	c-12.8-22.9-27.1-34-43.4-34c-7.5,0-14.7,2.5-21.3,7.3c-17.4,12.5-46,31.1-53.9,33.6c-47.9,5.3-88.9,17.4-113.4,26
	C95,267.9,94.6,267.2,94.2,266.5z M96.7,318.3v-11.4c19.6-7.4,63.9-22.3,116.6-28.1c18.3-2,67.7-38.1,70.6-40.3
	c2.3,1.6,9.3,7.8,18.5,29.2c5.5,12.9,9.3,25.5,10.6,29.9v20.6c0,59.6-48.5,108.2-108.2,108.2C145.3,426.5,96.7,378,96.7,318.3z
	 M302.1,573.6v92H54.3V550c0-53,29.9-95.5,75.2-108.3c22,13.5,47.8,21.3,75.4,21.3c58.9,0,109.6-35.4,132.2-86v5.8
	c0,29.9,10.8,57.4,28.8,78.7C327.2,482.1,302.1,524.5,302.1,573.6z M459.4,468.6c-47.4,0-85.9-38.5-85.9-85.9v-7.1
	c16.9-6.3,51.8-17.7,93.2-22.2c14.4-1.6,48.9-26,57.8-32.3c6.1,6.1,15.4,26.1,20.8,45.1v16.5C545.3,430.1,506.8,468.6,459.4,468.6z"
	/>
</svg>
