<?xml version="1.0" encoding="utf-8"?>
<!-- Generator: Adobe Illustrator 18.0.0, SVG Export Plug-In . SVG Version: 6.00 Build 0)  -->
<!DOCTYPE svg PUBLIC "-//W3C//DTD SVG 1.1//EN" "http://www.w3.org/Graphics/SVG/1.1/DTD/svg11.dtd">
<svg version="1.1" id="Layer_1" xmlns="http://www.w3.org/2000/svg" xmlns:xlink="http://www.w3.org/1999/xlink" x="0px" y="0px"
	 viewBox="0 0 612 792" enable-background="new 0 0 612 792" xml:space="preserve">
<path opacity="0.5" fill="#FD8A06" d="M320.8,371.7h-82.9c-11.3,0-20.5-9.2-20.5-20.5v-56.4c-24.6-3.3-43.4-24.8-42.3-50.5
	c1-25.2,21.5-45.7,46.7-46.8c18.1-0.8,34.1,8.3,43.2,22.3c8.7-13.5,23.8-22.4,41.1-22.4s32.4,8.9,41.1,22.4
	c9.1-14,25.1-23.1,43.2-22.3c25.2,1.1,45.7,21.6,46.7,46.8c1.1,25.7-17.8,47.2-42.3,50.5v56.4c0,11.3-9.2,20.5-20.5,20.5h-6.5H320.8
	z"/>
<g>
	<path fill="#FD8A06" d="M374.1,388.5H237.9c-20.5,0-37.3-16.7-37.3-37.3v-43.4c-26-9.7-43.5-35.1-42.3-64.1
		c1.4-33.8,28.9-61.4,62.7-62.8c16.3-0.7,31.7,4.6,43.9,14.4c11.5-9.2,25.9-14.4,41.1-14.4c15.2,0,29.6,5.2,41.1,14.4
		c12.2-9.8,27.6-15.1,43.9-14.4c33.8,1.4,61.4,29,62.7,62.8c1.2,29-16.3,54.4-42.3,64.1v43.4C411.4,371.7,394.7,388.5,374.1,388.5z
		 M223.9,214.3c-0.5,0-0.9,0-1.4,0c-16.5,0.7-30,14.2-30.7,30.7c-0.7,16.7,11.3,31,27.8,33.2c8.3,1.1,14.6,8.2,14.6,16.6v56.4
		c0,2.1,1.7,3.7,3.7,3.7h136.2c2.1,0,3.7-1.7,3.7-3.7v-56.4c0-8.4,6.2-15.5,14.6-16.6c16.5-2.2,28.5-16.5,27.8-33.2
		c-0.7-16.5-14.1-30-30.7-30.7c-11.5-0.5-22.2,5.1-28.4,14.7c-3.1,4.8-8.4,7.7-14.1,7.7l0,0c-5.7,0-11-2.9-14.1-7.7
		c-6-9.2-16-14.7-27-14.7c-10.9,0-21,5.5-27,14.7c-3.1,4.8-8.4,7.7-14.1,7.7c-5.7,0-11-2.9-14.1-7.7
		C244.9,219.8,234.8,214.3,223.9,214.3z"/>
	<path fill="#FD8A06" d="M494.8,702h-21.3c-9.3,0-16.8-7.5-16.8-16.8c0-9.3,7.5-16.8,16.8-16.8h21.3c16,0,29-13,29-29V151.9
		c0-15.7-12.7-28.4-28.4-28.4H116.5c-15.7,0-28.4,12.7-28.4,28.4v487.6c0,16,13,29,29,29H141c4.1,0,7.4-3.3,7.4-7.4V655
		c0-22.6,18.4-41,41-41h45.4c22.6,0,41,18.4,41,41v6.1c0,4.1,3.3,7.4,7.4,7.4h48c4.1,0,7.4-3.3,7.4-7.4V655c0-22.6,18.4-41,41-41
		h25.4c9.3,0,16.8,7.5,16.8,16.8s-7.5,16.8-16.8,16.8h-25.4c-4.1,0-7.4,3.3-7.4,7.4v6.1c0,22.6-18.4,41-41,41h-48
		c-22.6,0-41-18.4-41-41V655c0-4.1-3.3-7.4-7.4-7.4h-45.4c-4.1,0-7.4,3.3-7.4,7.4v6.1c0,22.6-18.4,41-41,41h-23.9
		c-34.5,0-62.5-28-62.5-62.5V151.9c0-34.1,27.8-61.9,61.9-61.9h378.9c34.1,0,61.9,27.8,61.9,61.9v487.6
		C557.4,674,529.3,702,494.8,702z"/>
	<path fill="#FD8A06" d="M313.3,473.2H152.4c-9.3,0-16.8-7.5-16.8-16.8s7.5-16.8,16.8-16.8h160.9c9.3,0,16.8,7.5,16.8,16.8
		C330,465.7,322.5,473.2,313.3,473.2z"/>
	<path fill="#FD8A06" d="M313.3,561.1H152.4c-9.3,0-16.8-7.5-16.8-16.8s7.5-16.8,16.8-16.8h160.9c9.3,0,16.8,7.5,16.8,16.8
		S322.5,561.1,313.3,561.1z"/>
	<path fill="#FD8A06" d="M459.6,473.2h-60.3c-9.3,0-16.8-7.5-16.8-16.8s7.5-16.8,16.8-16.8h60.3c9.3,0,16.8,7.5,16.8,16.8
		C476.4,465.7,468.9,473.2,459.6,473.2z"/>
	<path fill="#FD8A06" d="M459.6,561.1h-60.3c-9.3,0-16.8-7.5-16.8-16.8s7.5-16.8,16.8-16.8h60.3c9.3,0,16.8,7.5,16.8,16.8
		S468.9,561.1,459.6,561.1z"/>
</g>
</svg>
