<?xml version="1.0" encoding="utf-8"?>
<!-- Generator: Adobe Illustrator 18.0.0, SVG Export Plug-In . SVG Version: 6.00 Build 0)  -->
<!DOCTYPE svg PUBLIC "-//W3C//DTD SVG 1.1//EN" "http://www.w3.org/Graphics/SVG/1.1/DTD/svg11.dtd">
<svg version="1.1" id="Layer_1" xmlns="http://www.w3.org/2000/svg" xmlns:xlink="http://www.w3.org/1999/xlink" x="0px" y="0px"
	 viewBox="0 0 612 792" enable-background="new 0 0 612 792" xml:space="preserve">
<g>
	<path fill="#FD8A06" d="M306,702C137.3,702,0,564.7,0,396S137.3,90,306,90s306,137.3,306,306c0,84.7-33.8,163.5-95.2,221.8
		c-6.8,6.5-17.6,6.2-24.1-0.6c-6.5-6.8-6.2-17.6,0.6-24.1C547.9,541.3,578,471.3,578,396c0-150-122-272-272-272S34,246,34,396
		s122,272,272,272c36.7,0,72.3-7.2,105.8-21.3c8.7-3.7,18.6,0.4,22.3,9c3.7,8.7-0.4,18.6-9,22.3C387.3,693.9,347.3,702,306,702z"/>
	<path fill="#FD8A06" d="M143.5,407.7c-29.1,0-52.7-23.6-52.7-52.7c0-29.1,23.6-52.7,52.7-52.7l69.3-0.5c10.4,0,18.8-8.4,18.8-18.7
		c0-10.3-8.4-18.7-18.7-18.7h-32.1c-9.4,0-17-7.6-17-17c0-9.4,7.6-17,17-17H213c29.1,0,52.7,23.6,52.7,52.7
		c0,29.1-23.6,52.7-52.7,52.7l-69.3,0.5c-10.4,0-18.8,8.4-18.8,18.7c0,10.3,8.4,18.7,18.7,18.7c9.4,0,17,7.6,17,17
		C160.6,400.1,152.9,407.7,143.5,407.7z"/>
</g>
<path opacity="0.5" fill="#FD8A06" d="M123.8,476.5h364.4c13,0,23.6-10.6,23.6-23.6v-39.4c0-13-10.6-23.6-23.6-23.6H123.8
	c-13,0-23.6,10.6-23.6,23.6v39.4C100.2,465.9,110.8,476.5,123.8,476.5z"/>
<g>
	<path fill="#FD8A06" d="M488.2,493.5H123.8c-22.4,0-40.6-18.2-40.6-40.6v-39.4c0-22.4,18.2-40.6,40.6-40.6h364.4
		c22.4,0,40.6,18.2,40.6,40.6v39.4C528.8,475.3,510.6,493.5,488.2,493.5z M123.8,406.9c-3.6,0-6.6,2.9-6.6,6.6v39.4
		c0,3.6,2.9,6.6,6.6,6.6h364.4c3.6,0,6.6-2.9,6.6-6.6v-39.4c0-3.6-2.9-6.6-6.6-6.6L123.8,406.9L123.8,406.9z"/>
	<path fill="#FD8A06" d="M408.8,490.4c-9.4,0-17-7.6-17-17V393c0-9.4,7.6-17,17-17s17,7.6,17,17v80.3
		C425.9,482.8,418.2,490.4,408.8,490.4z"/>
	<path fill="#FD8A06" d="M101.7,617.4c-4.4,0-8.7-1.7-12-5c-6.6-6.6-6.6-17.4,0-24.1l64.4-64.4c6.6-6.6,17.4-6.6,24.1,0
		c6.6,6.6,6.6,17.4,0,24.1l-64.4,64.4C110.4,615.7,106,617.4,101.7,617.4z"/>
	<path fill="#FD8A06" d="M374.1,344.9c-4.4,0-8.7-1.7-12-5c-6.6-6.6-6.6-17.4,0-24.1l136.3-136.3c6.6-6.6,17.4-6.6,24.1,0
		c6.6,6.6,6.6,17.4,0,24.1L386.1,340C382.8,343.3,378.4,344.9,374.1,344.9z"/>
</g>
</svg>
