<?xml version="1.0" encoding="utf-8"?>
<!-- Generator: Adobe Illustrator 18.0.0, SVG Export Plug-In . SVG Version: 6.00 Build 0)  -->
<!DOCTYPE svg PUBLIC "-//W3C//DTD SVG 1.1//EN" "http://www.w3.org/Graphics/SVG/1.1/DTD/svg11.dtd">
<svg version="1.1" id="Layer_1" xmlns="http://www.w3.org/2000/svg" xmlns:xlink="http://www.w3.org/1999/xlink" x="0px" y="0px"
	 viewBox="0 0 612 792" enable-background="new 0 0 612 792" xml:space="preserve">
<path fill="#FD8A06" d="M306,702C137.3,702,0,564.7,0,396c0-42.4,8.5-83.5,25.3-122.1c20.5-47.1,52.9-88.6,93.6-120.1
	c41.4-32,90.5-52.9,142.1-60.5c14.8-2.2,29.9-3.3,45-3.3c59.1,0,116.5,16.9,165.9,48.8c48.1,31.1,86.5,74.9,110.9,126.6
	c19.4,41,29.2,84.9,29.2,130.6c0,2,0,4-0.1,5.9c0,0.1,0,0.1,0,0.2c-0.7,35.3-7.3,69.9-19.8,102.6c-3.2,8.3-6.8,16.7-10.8,24.9
	c0,0.1-0.1,0.1-0.1,0.2l-0.2,0.4c-11.6,23.7-26.3,46-43.8,66.1c-6.2,7.2-17.1,7.9-24.2,1.7c-7.2-6.2-7.9-17.1-1.7-24.2
	c15.5-17.9,28.6-37.7,38.9-58.8l0.2-0.5c3.5-7.3,6.7-14.7,9.5-22c11.1-29,17-59.6,17.6-91c0-0.1,0-0.3,0-0.4c0-1.7,0.1-3.5,0.1-5.2
	c0-40.5-8.7-79.5-25.9-115.9C507,185.5,410.6,124.4,306,124.4c-13.4,0-26.8,1-40,2.9c-91.9,13.5-172,75-209.2,160.4
	C41.9,321.9,34.4,358.3,34.4,396c0,149.8,121.8,271.6,271.6,271.6c39.5,0,77.6-8.3,113.2-24.6c8.6-4,18.8-0.2,22.8,8.5
	c4,8.6,0.2,18.8-8.5,22.8C393.4,692.7,350.5,702,306,702z"/>
<path opacity="0.5" fill="#FD8A06" d="M594.8,396c0,1.9,0,3.8-0.1,5.7v0.1c-0.7,34.1-7.2,66.7-18.7,96.9c-3,8-6.4,15.8-10.2,23.5
	c-0.1,0.1-0.1,0.3-0.2,0.4c-12.8-5.3-24.3-13.3-33.7-23.1c-12.1-12.6-20.9-28.3-25.1-45.9l-18.2-75.8c-1-4.2-3.7-7.8-7.4-10.1
	l-16.8-10.3c-5.3-3.2-8.3-9.2-7.8-15.3l1.3-14.6c0.4-5,2.9-9.7,6.7-12.9l40.9-34.5c3.9-3.3,8.9-4.8,13.9-4.4l47.6-2.9
	C584.9,310.1,594.8,351.9,594.8,396z"/>
<path fill="#FD8A06" d="M565.7,539.8c-2.2,0-4.5-0.4-6.6-1.3c-15-6.2-28.2-15.3-39.5-27c-14.4-15-24.6-33.6-29.4-53.8L472,382.2
	l-16.5-10.1c-10.9-6.7-17-18.7-15.9-31.5l1.3-14.6c0.8-9.5,5.5-18.5,12.8-24.6l40.9-34.4c6.9-5.8,15.8-8.9,25-8.5l46.6-2.9
	c7-0.4,13.6,3.5,16.6,9.8c19.4,41,29.2,84.9,29.2,130.6c0,2,0,4-0.1,5.9c0,0.1,0,0.1,0,0.2c-0.7,35.3-7.3,69.9-19.8,102.6
	c-3.2,8.3-6.8,16.7-10.8,24.9c0,0.1-0.1,0.1-0.1,0.2l-0.2,0.5C578,536.3,572,539.8,565.7,539.8z M474,343.1l16.3,10
	c7.6,4.7,13,12.1,15.1,20.7l18.2,75.8c3.4,14.2,10.6,27.4,20.8,38c4,4.2,8.4,7.9,13.1,11.1c0.8-2.1,1.7-4.1,2.4-6.2
	c11.1-29,17-59.6,17.6-91c0-0.1,0-0.3,0-0.4c0-1.7,0.1-3.5,0.1-5.2c0-36.7-7.1-72-21.2-105.4l-35.8,2.2c-0.8,0.1-1.7,0-2.5,0l-0.2,0
	c-0.3,0-0.8,0.1-1.2,0.4l-40.9,34.5c-0.4,0.3-0.6,0.8-0.7,1.3L474,343.1z"/>
<path opacity="0.5" fill="#FD8A06" d="M295.7,415.6c0,0-33,90.8-47.8,131.4c-4.2,11.5-15.1,19.1-27.3,19.1h-0.3
	c-12.4-0.1-23.3-8.1-27.2-19.8l-37.9-113.4c-0.7-2.1-1.8-4-3.2-5.7c-1.4-1.7-3.2-3-5.2-4c-11-5.5-19.9-28.3-19.9-28.3l-4-33.1
	c-1.1-9.4-3.7-18.5-7.6-27c-3.9-8.5-9.1-16.4-15.4-23.4c-12.1-13.4-27.9-22.8-45.4-27.2l-5-1.3c-4.3-1.1-6.6-5.9-4.7-9.9
	c40.3-85.5,121.3-148,218-162.5c0.5-0.1,1.1,0.2,1.3,0.7l21.5,43c1.2,2.3,1.8,4.9,1.8,7.5v3.4c0,5.8-3,11.3-8,14.3l-13.8,8.4
	c-3.7,2.2-6.3,5.8-7.4,9.9l-17.6,64.5c-1,3.8-3.3,7.1-6.3,9.4c-3,2.3-6.7,3.6-10.7,3.6c-2.2,0-4.4-0.4-6.4-1.2l-10.3-3.9
	c-7.4-2.8-18.4-1.3-29,1.6c-13.5,3.6-22.2,15.8-22.2,28.8c0,3.7,0.7,7.4,2.1,11.1c3.4,8.5,10.4,14.9,19.2,17.5
	c11.7,3.5,21.9,30.1,54.1,30.1c0,0,56.8-7.2,64.5,10.4C301.8,384,301.1,400.7,295.7,415.6z"/>
<path fill="#FD8A06" d="M220.5,583.3h-0.3c-19.8-0.2-37.3-12.9-43.5-31.5l-37.8-113.3c-15.6-7.9-25.5-30.6-28.1-37.4
	c-0.5-1.4-0.9-2.8-1.1-4.2l-4-33.1c-0.9-7.6-3-14.9-6.1-21.9c-3.2-6.9-7.4-13.3-12.5-19c-9.9-10.9-22.6-18.5-36.8-22.1l-5-1.3
	c-7.1-1.8-12.9-6.6-16.1-13.2c-3.1-6.6-3.1-14.2,0-20.8c43.7-92.6,130-157,231-172.2c0.9-0.1,1.8-0.2,2.7-0.2
	c7,0,13.3,3.9,16.5,10.2l21.5,43c2.3,4.6,3.6,9.9,3.6,15.2v3.4c0,11.8-6.2,22.9-16.3,29l-13.6,8.3L257,266.7
	c-2,7.4-6.5,14-12.5,18.6c-6,4.6-13.5,7.1-21.1,7.1c-4.4,0-8.6-0.8-12.6-2.4l-10.1-3.8c0,0-1-0.4-3.5-0.4c-2.7,0-7.4,0.4-15,2.5
	c-5.6,1.5-9.4,6.5-9.4,12.2c0,1.6,0.3,3.2,0.9,4.7c1.4,3.6,4.4,6.3,8.1,7.4c8.1,2.4,13.9,8.2,19.5,13.8c7.8,7.8,15.2,15.2,28.8,15.6
	c3.5-0.4,14-1.5,25.8-1.5c19.6,0,46.6,2.3,55.4,22.1c7.8,17.7,8,38.6,0.6,58.9c0,0-33,90.8-47.8,131.5
	C257.3,571.1,239.9,583.3,220.5,583.3z M154.4,407.8c4,2,7.5,4.7,10.4,8.1c2.9,3.4,5.1,7.3,6.6,11.5l37.9,113.4
	c1.6,4.8,6.1,8,11.1,8.1h0.2c5,0,9.4-3.1,11.2-7.8c14.8-40.7,47.8-131.4,47.8-131.4c4.1-11.3,4.4-22.4,0.9-31.6
	c-2.1-1-8.6-3.2-24.6-3.2c-12,0-22.6,1.3-22.7,1.3c-0.7,0.1-1.4,0.1-2.2,0.1c-28.5,0-44.6-16.1-54.1-25.7c-1.9-1.9-4.4-4.4-5.7-5.3
	c-13.5-4.3-24.2-14.2-29.5-27.4c-2.2-5.6-3.4-11.4-3.4-17.4c0-21.2,14.3-39.9,34.9-45.4c9-2.4,17-3.7,23.9-3.7
	c5.8,0,11,0.9,15.6,2.6l10.6,4c0.2,0,0.2-0.1,0.3-0.1c0.1-0.1,0.1-0.1,0.2-0.3l17.6-64.5c2.3-8.4,7.6-15.5,15.1-20.1l13.5-8.3v-3.1
	l-16.1-32.3C173.1,145.1,104,196.4,65.6,269.5c18,5.8,34.1,16.2,46.9,30.3c7.5,8.3,13.6,17.6,18.3,27.8c4.6,10.2,7.7,20.9,9,32
	l3.7,30.8C146.8,398,151.8,406.1,154.4,407.8z"/>
</svg>
