<?xml version="1.0" encoding="utf-8"?>
<!-- Generator: Adobe Illustrator 18.0.0, SVG Export Plug-In . SVG Version: 6.00 Build 0)  -->
<!DOCTYPE svg PUBLIC "-//W3C//DTD SVG 1.1//EN" "http://www.w3.org/Graphics/SVG/1.1/DTD/svg11.dtd">
<svg version="1.1" id="Layer_1" xmlns="http://www.w3.org/2000/svg" xmlns:xlink="http://www.w3.org/1999/xlink" x="0px" y="0px"
	 viewBox="0 0 612 792" enable-background="new 0 0 612 792" xml:space="preserve">
<path opacity="0.5" fill="#FD8A06" d="M333.9,220.6c0,15.4-12.5,27.9-27.9,27.9s-27.9-12.5-27.9-27.9c0-23,20.2-51.7,27.9-51.7
	C314.1,168.8,333.9,197.6,333.9,220.6z"/>
<g>
	<path fill="#FD8A06" d="M306,265.2c-24.6,0-44.6-20-44.6-44.6c0-17.9,8.4-34.7,13.4-43.1c10.1-16.9,20.6-25.4,31.2-25.4
		c23,0,44.6,42.7,44.6,68.5C350.6,245.2,330.6,265.2,306,265.2z M306.1,190.7c-5.2,7.6-11.2,20.1-11.2,29.9c0,6.1,5,11.1,11.1,11.1
		c6.1,0,11.1-5,11.1-11.1C317.1,210.6,311.2,198.2,306.1,190.7z"/>
	<path fill="#FD8A06" d="M329.4,361.7h-46.9c-14.7,0-26.6-11.9-26.6-26.6v-64.9c0-14.7,11.9-26.6,26.6-26.6h46.9
		c14.7,0,26.6,11.9,26.6,26.6v64.9C356,349.8,344.1,361.7,329.4,361.7z M289.5,328.2h33.1v-51.2h-33.1V328.2z"/>
	<path fill="#FD8A06" d="M464.2,362H147.8c-9.2,0-16.7-7.5-16.7-16.7c0-9.2,7.5-16.7,16.7-16.7h316.5c9.2,0,16.7,7.5,16.7,16.7
		C481,354.5,473.5,362,464.2,362z"/>
	<path fill="#FD8A06" d="M415.6,639.9c-9.2,0-16.7-7.5-16.7-16.7V494.8c0-9.2,7.5-16.7,16.7-16.7s16.7,7.5,16.7,16.7v128.4
		C432.3,632.4,424.8,639.9,415.6,639.9z"/>
	<path fill="#FD8A06" d="M196.4,445.1c-9.2,0-16.7-7.5-16.7-16.7v-83.2c0-9.2,7.5-16.7,16.7-16.7h219.2c9.2,0,16.7,7.5,16.7,16.7
		v79.8c0,9.2-7.5,16.7-16.7,16.7s-16.7-7.5-16.7-16.7V362H213.1v66.4C213.1,437.6,205.7,445.1,196.4,445.1z"/>
	<path fill="#FD8A06" d="M196.4,639.9c-9.2,0-16.7-7.5-16.7-16.7V495.9c0-9.2,7.5-16.7,16.7-16.7c9.2,0,16.7,7.5,16.7,16.7v127.2
		C213.1,632.4,205.7,639.9,196.4,639.9z"/>
</g>
<path opacity="0.5" fill="#FD8A06" d="M595.3,463h-67V217.6c0-19.2,15.6-34.7,34.7-34.7l0,0c17.8,0,32.2,14.4,32.2,32.2V463z"/>
<g>
	<path fill="#FD8A06" d="M595.3,479.7h-67c-9.2,0-16.7-7.5-16.7-16.7V217.6c0-28.4,23.1-51.5,51.5-51.5c27,0,49,22,49,49v248
		C612,472.2,604.5,479.7,595.3,479.7z M545,446.3h33.5V215c0-8.5-6.9-15.5-15.5-15.5c-9.9,0-18,8.1-18,18V446.3z"/>
	<path fill="#FD8A06" d="M595.3,479.7H485.6c-9.2,0-16.7-7.5-16.7-16.7s7.5-16.7,16.7-16.7h109.7c9.2,0,16.7,7.5,16.7,16.7
		S604.5,479.7,595.3,479.7z"/>
	<path fill="#FD8A06" d="M595.3,639.9c-9.2,0-16.7-7.5-16.7-16.7V370.3c0-9.2,7.5-16.7,16.7-16.7s16.7,7.5,16.7,16.7v252.8
		C612,632.4,604.5,639.9,595.3,639.9z"/>
	<path fill="#FD8A06" d="M485.6,639.9c-9.2,0-16.7-7.5-16.7-16.7V463c0-9.2,7.5-16.7,16.7-16.7s16.7,7.5,16.7,16.7v160.2
		C502.3,632.4,494.8,639.9,485.6,639.9z"/>
</g>
<path opacity="0.5" fill="#FD8A06" d="M16.7,463h67V217.6c0-19.2-15.6-34.7-34.7-34.7l0,0c-17.8,0-32.2,14.4-32.2,32.2
	C16.7,215,16.7,463,16.7,463z"/>
<g>
	<path fill="#FD8A06" d="M83.7,479.7h-67C7.5,479.7,0,472.2,0,463V215c0-27,22-49,49-49c28.4,0,51.5,23.1,51.5,51.5V463
		C100.5,472.2,93,479.7,83.7,479.7z M33.5,446.3H67V217.6c0-9.9-8.1-18-18-18c-8.5,0-15.5,6.9-15.5,15.5
		C33.5,215,33.5,446.3,33.5,446.3z"/>
	<path fill="#FD8A06" d="M126.4,479.7H16.7C7.5,479.7,0,472.2,0,463s7.5-16.7,16.7-16.7h109.7c9.2,0,16.7,7.5,16.7,16.7
		S135.7,479.7,126.4,479.7z"/>
	<path fill="#FD8A06" d="M16.7,639.9c-9.2,0-16.7-7.5-16.7-16.7V370.3c0-9.2,7.5-16.7,16.7-16.7s16.7,7.5,16.7,16.7v252.8
		C33.5,632.4,26,639.9,16.7,639.9z"/>
	<path fill="#FD8A06" d="M126.4,639.9c-9.2,0-16.7-7.5-16.7-16.7V463c0-9.2,7.5-16.7,16.7-16.7s16.7,7.5,16.7,16.7v160.2
		C143.2,632.4,135.7,639.9,126.4,639.9z"/>
</g>
</svg>
