<?xml version="1.0" encoding="utf-8"?>
<!-- Generator: Adobe Illustrator 18.0.0, SVG Export Plug-In . SVG Version: 6.00 Build 0)  -->
<!DOCTYPE svg PUBLIC "-//W3C//DTD SVG 1.1//EN" "http://www.w3.org/Graphics/SVG/1.1/DTD/svg11.dtd">
<svg version="1.1" id="Layer_1" xmlns="http://www.w3.org/2000/svg" xmlns:xlink="http://www.w3.org/1999/xlink" x="0px" y="0px"
	 viewBox="0 0 612 792" enable-background="new 0 0 612 792" xml:space="preserve">
<path opacity="0.5" fill="#FD8A06" d="M306,253.2v171.4h171.4C477.4,329.9,400.7,253.2,306,253.2z"/>
<path fill="#FD8A06" d="M565.9,407.1c-9.7,0-17.5,7.8-17.5,17.5C548.5,558.2,439.7,667,306,667S63.5,558.2,63.5,424.6
	S172.3,182.1,306,182.1c53.5,0,105.2,17.6,147.4,50l-37.9,38.1c-30.9-22-68.8-35-109.5-35c-9.9,0-18,8.1-18,18v171.4
	c0,9.9,8.1,18,18,18h152.3C449.4,518.7,384.5,578,306,578c-84.6,0-153.4-68.8-153.4-153.4c0-48.3,22.1-92.8,60.5-122.1
	c7.9-6,9.4-17.3,3.4-25.2c-6-7.9-17.3-9.4-25.2-3.4c-47.5,36.2-74.7,91.1-74.7,150.7C116.6,529,201.6,614,306,614
	s189.4-85,189.4-189.4c0-46.1-16.6-88.4-44-121.3L560,332.4c1.5,0.4,3,0.6,4.5,0.6c0.1,0,0.1,0,0.2,0c9.6-0.1,17.3-7.9,17.3-17.5
	c0-2-0.3-3.9-0.9-5.6l-35.6-132.8c-1.6-6-6.3-10.8-12.4-12.4c-6-1.6-12.5,0.1-16.9,4.5l-37.9,37.9C434,172,380,151.2,323.5,147.7
	V125h21.2c9.7,0,17.5-7.8,17.5-17.5S354.4,90,344.7,90h-77.4c-9.7,0-17.5,7.8-17.5,17.5s7.8,17.5,17.5,17.5h21.2v22.7
	c-144.9,9.1-260,129.8-260,276.9C28.6,577.5,153,702,306,702s277.4-124.5,277.4-277.4C583.4,414.9,575.6,407.1,565.9,407.1z
	 M452.9,380.4c0.1,0.3,0.2,0.6,0.3,1c0.5,1.8,1,3.6,1.5,5.5c0.1,0.3,0.1,0.6,0.2,0.9c0.5,1.9,0.9,3.8,1.3,5.7c0,0.1,0,0.1,0,0.2
	c0.4,1.9,0.7,3.8,1.1,5.8c0.1,0.3,0.1,0.7,0.2,1c0.3,1.9,0.6,3.7,0.8,5.6c0,0.2,0,0.3,0.1,0.5H324V272.2c0.2,0,0.3,0,0.5,0.1
	c1.9,0.2,3.8,0.5,5.7,0.8c0.3,0.1,0.6,0.1,1,0.2c2,0.3,3.9,0.7,5.8,1.1c0,0,0.1,0,0.1,0c1.9,0.4,3.9,0.8,5.8,1.3
	c0.3,0.1,0.5,0.1,0.8,0.2c1.9,0.5,3.7,1,5.5,1.5c0.3,0.1,0.6,0.2,0.9,0.3c1.8,0.6,3.7,1.1,5.5,1.8c0.2,0.1,0.3,0.1,0.5,0.2
	c1.8,0.6,3.6,1.3,5.4,2c0.1,0,0.2,0.1,0.3,0.1c1.8,0.7,3.6,1.5,5.4,2.2c0.3,0.1,0.5,0.2,0.8,0.3c1.7,0.8,3.5,1.6,5.2,2.4
	c0.2,0.1,0.4,0.2,0.6,0.3c3.6,1.8,7,3.7,10.4,5.7c0.2,0.1,0.4,0.2,0.5,0.3c1.6,1,3.3,2,4.9,3.1c0.2,0.1,0.4,0.3,0.6,0.4
	c1.6,1.1,3.2,2.2,4.8,3.3c0.1,0.1,0.2,0.1,0.2,0.2c1.6,1.2,3.2,2.3,4.8,3.6c0.1,0,0.1,0.1,0.2,0.1c1.5,1.2,3,2.4,4.5,3.7
	c0.2,0.2,0.4,0.3,0.6,0.5c1.5,1.2,2.9,2.5,4.3,3.8c0.1,0.1,0.3,0.3,0.4,0.4c2.9,2.7,5.7,5.5,8.4,8.4c0.1,0.1,0.3,0.3,0.4,0.4
	c1.3,1.4,2.6,2.9,3.8,4.3c0.2,0.2,0.3,0.4,0.5,0.6c1.3,1.5,2.5,3,3.7,4.5c0,0.1,0.1,0.1,0.1,0.2c1.2,1.6,2.4,3.1,3.6,4.8
	c0.1,0.1,0.1,0.2,0.2,0.2c1.1,1.6,2.2,3.2,3.3,4.8c0.1,0.2,0.3,0.4,0.4,0.7c1,1.6,2.1,3.2,3,4.9c0.1,0.2,0.2,0.4,0.3,0.6
	c2,3.4,3.9,6.8,5.7,10.4c0.1,0.2,0.2,0.5,0.3,0.7c0.8,1.7,1.6,3.4,2.4,5.2c0.1,0.3,0.2,0.5,0.4,0.8c0.8,1.8,1.5,3.6,2.2,5.4
	c0,0.1,0.1,0.2,0.1,0.4c0.7,1.8,1.4,3.6,2,5.4c0.1,0.2,0.1,0.4,0.2,0.6C451.8,376.8,452.4,378.6,452.9,380.4z M519.6,215.4
	l20.2,75.3l-75.3-20.2L519.6,215.4z"/>
</svg>
