<?xml version="1.0" encoding="utf-8"?>
<!-- Generator: Adobe Illustrator 18.0.0, SVG Export Plug-In . SVG Version: 6.00 Build 0)  -->
<!DOCTYPE svg PUBLIC "-//W3C//DTD SVG 1.1//EN" "http://www.w3.org/Graphics/SVG/1.1/DTD/svg11.dtd">
<svg version="1.1" id="Layer_1" xmlns="http://www.w3.org/2000/svg" xmlns:xlink="http://www.w3.org/1999/xlink" x="0px" y="0px"
	 viewBox="0 0 612 792" enable-background="new 0 0 612 792" xml:space="preserve">
<path id="SVGCleanerId_0" fill="#3C1146" d="M571.1,489.2H415.4c-51.4,0-93.2-41.8-93.2-93.2s41.8-93.2,93.2-93.2h155.6
	c22.6,0,40.9,18.4,40.9,40.9v104.6C612,470.9,593.6,489.2,571.1,489.2z M415.4,337.6c-32.2,0-58.4,26.2-58.4,58.4
	s26.2,58.4,58.4,58.4h155.6c3.4,0,6.1-2.7,6.1-6.1V343.7c0-3.4-2.7-6.1-6.1-6.1L415.4,337.6L415.4,337.6z"/>
<g>
	<path fill="#FD8A06" d="M525.1,647.2H70.4C31.6,647.2,0,615.7,0,576.9V215.1c0-38.8,31.6-70.4,70.4-70.4h454.8
		c38.8,0,70.4,31.6,70.4,70.4v32.1c0,9.6-7.8,17.4-17.4,17.4s-17.4-7.8-17.4-17.4v-32.1c0-19.6-16-35.6-35.6-35.6H70.4
		c-19.6,0-35.6,16-35.6,35.6v361.7c0,19.6,16,35.6,35.6,35.6h454.8c19.6,0,35.6-16,35.6-35.6v-34.7c0-9.6,7.8-17.4,17.4-17.4
		c9.6,0,17.4,7.8,17.4,17.4v34.7C595.5,615.7,563.9,647.2,525.1,647.2z"/>
	<path fill="#FD8A06" d="M424.5,413.4h-17.4c-9.6,0-17.4-7.8-17.4-17.4c0-9.6,7.8-17.4,17.4-17.4h17.4c9.6,0,17.4,7.8,17.4,17.4
		C441.8,405.6,434.1,413.4,424.5,413.4z"/>
</g>
<g>
	<path id="SVGCleanerId_0_1_" fill="#FD8A06" d="M571.1,489.2H415.4c-51.4,0-93.2-41.8-93.2-93.2s41.8-93.2,93.2-93.2h155.6
		c22.6,0,40.9,18.4,40.9,40.9v104.6C612,470.9,593.6,489.2,571.1,489.2z M415.4,337.6c-32.2,0-58.4,26.2-58.4,58.4
		s26.2,58.4,58.4,58.4h155.6c3.4,0,6.1-2.7,6.1-6.1V343.7c0-3.4-2.7-6.1-6.1-6.1L415.4,337.6L415.4,337.6z"/>
</g>
<path opacity="0.5" fill="#FD8A06" d="M415.4,471.8c-41.9,0-75.8-33.9-75.8-75.8l0,0c0-41.9,33.9-75.8,75.8-75.8h58.3v-17.4v-20.3
	c0-8.8-7.1-15.9-15.9-15.9H137.7c-8.8,0-15.9,7.1-15.9,15.9v227.1c0,8.8,7.1,15.9,15.9,15.9h320.1c8.8,0,15.9-7.1,15.9-15.9v-20.3
	v-17.4L415.4,471.8L415.4,471.8L415.4,471.8z"/>
<path fill="#FD8A06" d="M457.8,542.8H137.7c-18.4,0-33.3-14.9-33.3-33.3V282.5c0-18.4,14.9-33.3,33.3-33.3h320.1
	c18.4,0,33.3,14.9,33.3,33.3v37.7c0,9.6-7.8,17.4-17.4,17.4h-58.3c-32.2,0-58.4,26.2-58.4,58.4s26.2,58.4,58.4,58.4h58.3
	c9.6,0,17.4,7.8,17.4,17.4v37.7C491.1,527.9,476.2,542.8,457.8,542.8z M139.2,508.1h317.1v-18.8h-40.9c-51.4,0-93.2-41.8-93.2-93.2
	s41.8-93.2,93.2-93.2h40.9v-18.8H139.2V508.1z"/>
</svg>
